# xmcd
#
# Track frame offsets:
#	150
#	16164
#	31343
#	47584
#	62767
#	80852
#	102122
#	118716
#	137026
#	149398
#	165823
#	181230
#	195179
#	211128
#
# Disc length: 3060 seconds
#
# Revision: 0
# Processed by: cddbd v1.5.2PL0 Copyright (c) Steve Scherf et al.
# Submitted via: EasyCDDAExtractor 12.0.1.1
#
DISCID=b10bf20e
DTITLE=Kelly Clarkson - All I Ever Wanted
DYEAR=2009
DGENRE=Pop
TTITLE0=My Life Would Suck Without You
TTITLE1=I Do Not Hook Up
TTITLE2=Cry
TTITLE3=Don't Let Me Stop You
TTITLE4=All I Ever Wanted
TTITLE5=Already Gone
TTITLE6=If I Can't Have You
TTITLE7=Save You
TTITLE8=Whyyawannabringmedown
TTITLE9=Long Shot
TTITLE10=Impossible
TTITLE11=Ready
TTITLE12=I Want You
TTITLE13=If No One Will Listen
EXTD=
EXTT0=
EXTT1=
EXTT2=
EXTT3=
EXTT4=
EXTT5=
EXTT6=
EXTT7=
EXTT8=
EXTT9=
EXTT10=
EXTT11=
EXTT12=
EXTT13=
PLAYORDER=
